<?xml version="1.0" standalone="no"?>
<!DOCTYPE svg PUBLIC "-//W3C//DTD SVG 20010904//EN"
 "http://www.w3.org/TR/2001/REC-SVG-20010904/DTD/svg10.dtd">
<svg version="1.0" xmlns="http://www.w3.org/2000/svg"
 width="512.000000pt" height="512.000000pt" viewBox="0 0 512.000000 512.000000"
 preserveAspectRatio="xMidYMid meet">
<metadata>
Created by potrace 1.14, written by Peter Selinger 2001-2017
</metadata>
<g transform="translate(0.000000,512.000000) scale(0.100000,-0.100000)"
fill="#000000" stroke="none">
<path d="M1261 5104 c-205 -55 -361 -252 -361 -456 l0 -48 -225 0 c-125 0
-247 -5 -277 -11 -187 -39 -348 -200 -387 -387 -8 -38 -11 -591 -10 -1910 0
-1722 1 -1862 17 -1923 46 -173 202 -321 380 -358 38 -8 661 -11 2170 -10
1968 0 2122 1 2183 17 173 46 321 202 358 380 8 38 11 591 10 1910 0 1722 -1
1862 -17 1923 -46 173 -202 321 -380 358 -29 6 -132 11 -227 11 l-175 0 0 48
c0 250 -226 472 -480 472 -254 0 -480 -222 -480 -472 l0 -48 -750 0 -750 0 0
48 c0 26 -7 74 -15 105 -67 259 -333 419 -584 351z m207 -331 c14 -10 35 -32
46 -47 20 -26 21 -40 21 -336 0 -296 -1 -310 -21 -336 -39 -53 -71 -69 -134
-69 -63 0 -95 16 -134 69 -20 26 -21 43 -24 309 -2 155 0 296 3 314 7 40 49
91 90 109 40 19 120 12 153 -13z m2460 0 c14 -10 35 -32 46 -47 20 -26 21 -40
21 -336 0 -296 -1 -310 -21 -336 -39 -53 -71 -69 -134 -69 -63 0 -95 16 -134
69 -20 26 -21 43 -24 309 -2 155 0 296 3 314 7 40 49 91 90 109 40 19 120 12
153 -13z m-3026 -645 c5 -105 29 -182 78 -252 68 -99 162 -166 284 -201 75
-22 198 -16 278 12 189 69 318 255 318 460 l0 73 749 0 749 0 4 -92 c5 -105
29 -182 78 -252 68 -99 162 -166 284 -201 75 -22 198 -16 278 12 189 69 318
255 318 460 l0 74 178 -3 c174 -3 179 -4 219 -30 25 -16 49 -44 62 -72 21 -42
22 -55 19 -298 l-3 -255 -27 -40 c-16 -24 -44 -49 -70 -62 l-44 -21 -2094 0
-2094 0 -44 21 c-26 13 -54 38 -70 62 l-27 41 0 266 0 266 27 41 c15 23 44 49
70 62 40 19 58 21 259 21 l217 0 4 -92z m-502 -997 c62 -14 4258 -14 4320 0
25 5 53 12 62 15 17 5 18 -63 18 -1336 0 -1184 -2 -1345 -15 -1377 -21 -50
-42 -72 -90 -94 -38 -18 -123 -19 -2135 -19 -2012 0 -2097 1 -2135 19 -48 22
-69 44 -90 94 -13 32 -15 193 -15 1377 0 1273 1 1341 18 1336 9 -3 37 -10 62
-15z"/>
<path d="M1865 2824 c-240 -53 -438 -215 -529 -432 -45 -106 -59 -201 -52
-337 19 -374 186 -711 525 -1059 187 -191 466 -406 655 -505 101 -53 133 -44
342 94 342 227 638 517 802 787 208 340 279 709 187 979 -35 105 -80 174 -175
269 -94 95 -186 150 -320 191 -98 31 -299 33 -400 6 -92 -26 -194 -77 -275
-140 l-71 -54 -49 44 c-58 51 -203 126 -290 149 -88 23 -264 27 -350 8z m248
-319 c37 -8 90 -26 117 -41 63 -34 140 -115 174 -182 34 -68 84 -102 149 -102
77 0 124 33 167 119 51 102 178 189 308 212 176 31 364 -67 445 -231 31 -63
32 -69 31 -190 0 -157 -30 -275 -109 -435 -78 -156 -170 -280 -325 -436 -143
-144 -266 -247 -418 -348 l-93 -63 -42 25 c-23 14 -96 65 -162 115 -449 335
-700 696 -746 1074 -30 247 95 435 321 484 74 16 103 16 183 -1z"/>
</g>
</svg>
